<?xml version="1.0" encoding="utf-8"?>
<!-- Generator: Adobe Illustrator 22.1.0, SVG Export Plug-In . SVG Version: 6.00 Build 0)  -->
<svg version="1.1" id="_x39_8fdd3a5-2c74-40f5-a4f2-41d93d22b358"
	 xmlns="http://www.w3.org/2000/svg" xmlns:xlink="http://www.w3.org/1999/xlink" x="0px" y="0px" viewBox="0 0 909.7 748.2"
	 style="enable-background:new 0 0 909.7 748.2;" xml:space="preserve">
<style type="text/css">
	.st0{opacity:0.7;}
	.st1{fill:url(#SVGID_1_);}
	.st2{fill:#6C63FF;}
	.st3{opacity:0.1;enable-background:new    ;}
	.st4{fill:#EEEEEE;}
	.st5{fill:none;stroke:#E0E0E0;stroke-width:8;stroke-miterlimit:10;}
	.st6{fill:url(#SVGID_2_);}
	.st7{fill:none;stroke:#BDBDBD;stroke-width:5;stroke-miterlimit:10;}
	.st8{fill:#B84733;}
	.st9{fill:#F55F44;}
	.st10{fill:#39447A;}
	.st11{opacity:5.000000e-02;enable-background:new    ;}
	.st12{fill:#A85231;}
	.st13{fill:#333333;}
	.st14{fill:url(#SVGID_3_);}
	.st15{fill:#4DB6AC;}
	.st16{opacity:0.6;fill:none;stroke:#535461;stroke-miterlimit:10;enable-background:new    ;}
	.st17{fill:url(#SVGID_4_);}
	.st18{fill:#E0E0E0;}
	.st19{fill:#535461;}
	.st20{fill:url(#SVGID_5_);}
	.st21{fill:#3E3F49;}
</style>
<title>hello</title>
<g class="st0">
	
		<linearGradient id="SVGID_1_" gradientUnits="userSpaceOnUse" x1="966.5574" y1="339.19" x2="966.5574" y2="400.2" gradientTransform="matrix(1 0 0 -1 -146.88 674.11)">
		<stop  offset="0" style="stop-color:#808080;stop-opacity:0.25"/>
		<stop  offset="0.54" style="stop-color:#808080;stop-opacity:0.12"/>
		<stop  offset="1" style="stop-color:#808080;stop-opacity:0.1"/>
	</linearGradient>
	<path class="st1" d="M839.8,284.8v-10.9h-54.5v50.4c0,5.9,4.8,10.6,10.6,10.6h33.2c5.9,0,10.6-4.8,10.6-10.6v-11.2
		c7.8,0,14.2-6.3,14.2-14.2S847.7,284.8,839.8,284.8L839.8,284.8z M839.8,307.7v-17.4c4.8-0.2,8.8,3.6,9,8.4c0.2,4.8-3.6,8.8-8.4,9
		C840.2,307.7,840,307.7,839.8,307.7L839.8,307.7z"/>
</g>
<path class="st2" d="M838.1,286.5c-7.1,0-12.9,5.8-12.9,12.9s5.8,12.9,12.9,12.9s12.9-5.8,12.9-12.9l0,0
	C851,292.3,845.3,286.5,838.1,286.5z M838.1,307.4c-4.4,0-8-3.6-8-8s3.6-8,8-8s8,3.6,8,8S842.5,307.4,838.1,307.4
	C838.1,307.4,838.1,307.4,838.1,307.4L838.1,307.4z"/>
<path class="st3" d="M838.1,286.5c-7.1,0-12.9,5.8-12.9,12.9s5.8,12.9,12.9,12.9s12.9-5.8,12.9-12.9l0,0
	C851,292.3,845.3,286.5,838.1,286.5z M838.1,307.4c-4.4,0-8-3.6-8-8s3.6-8,8-8s8,3.6,8,8S842.5,307.4,838.1,307.4
	C838.1,307.4,838.1,307.4,838.1,307.4L838.1,307.4z"/>
<path class="st2" d="M788.3,276.6h49.7l0,0v46c0,5.4-4.4,9.8-9.8,9.8l0,0h-30.2c-5.4,0-9.8-4.4-9.8-9.8l0,0V276.6L788.3,276.6z"/>
<path class="st3" d="M829.1,276.6v46c0,5.4-4.3,9.7-9.7,9.7l0,0h5c5.4,0,9.7-4.3,9.7-9.7v0v-46H829.1z"/>
<path class="st4" d="M798.1,239.5c-0.9,0-1.7,0.4-2.2,1.1c-0.7,1.2,0.5,2.5,1.6,3.3c2,1.5,4.1,3,5.5,5.1s1.8,5,0.3,7
	c-1.9,2.6-6.5,3.2-7,6.4c-0.3,2.1,1.5,3.8,3.3,4.9c4.5,2.6,10.3,3.3,13.5,7.3c1.3-2.8,4.3-4.4,7.3-5s6.1-0.6,9.1-1.1
	c1,0,2-0.5,2.5-1.4c0.8-1.7-1.6-3.8-0.7-5.5c0.6-1.3,2.5-1.2,3.9-1.7c2.2-0.9,3.1-3.7,2.5-6c-0.6-2.3-2.4-4.1-4.3-5.6
	c-5-4-11.1-6.3-17.2-8c-2.8-0.8-6.2-2-9.2-2.1S801,239,798.1,239.5z"/>
<line class="st5" x1="449.1" y1="344" x2="345.1" y2="668"/>
<g class="st0">
	
		<linearGradient id="SVGID_2_" gradientUnits="userSpaceOnUse" x1="517" y1="-74.1308" x2="517" y2="674.1522" gradientTransform="matrix(1 0 0 -1 -146.88 674.11)">
		<stop  offset="0" style="stop-color:#808080;stop-opacity:0.25"/>
		<stop  offset="0.54" style="stop-color:#808080;stop-opacity:0.12"/>
		<stop  offset="1" style="stop-color:#808080;stop-opacity:0.1"/>
	</linearGradient>
	<path class="st6" d="M529.6,704.5c-12.8,0.7-24.2,11.5-24.2,11.5l-5.5-13.7l-0.5,0.2c2.7-11.8,57.5-254.7,2.6-275.7
		c-42.1-16.1-86.8-36-121.8-35.3v-57.4h49.1v-2h38.9c7.5-5.3-3.4-9-15.5-11.3c0.5-0.6,0.9-1.2,1.3-1.8l62.2-111.7
		c0,0,14.3-23.5,5.1-34.8s-22.5,28.6-22.5,28.6l-51.1,73.6c0,0-51.7-53.8-84.4-80.6c-3.6-3.6-7.8-6.7-12.2-9.2
		c-6-4-10.5-6.2-12.8-5.3h-0.1c-5-1.4-10.1-2.1-15.3-2.1h-4.1v-8.4c18.6-6.1,33.4-20.2,40.5-38.4c11.7-19.4,13.8-43,5.8-64.2
		c0.6-0.1,1.2-0.3,1.7-0.6c1.8-1.2,2-3.8,1.9-6c-1.4-15-10-28.3-23.1-35.6c-5.2-2.8-11.1-4.8-14.9-9.3c-3.3-3.9-4.7-9.3-8.6-12.4
		c-4.7-3.8-11.5-3.1-17.3-1.4c-6.4,1.9-12.6,4.7-18.1,8.5c-6.3,4.3-11.9,9.8-19.1,12.2c-5.1,1.7-10.7,1.7-15.8,3.2
		c-8,2.5-14.4,8.7-17.1,16.7c-1.3,4.2-1.8,8.6-1.5,13c-3.1,5.2-5.6,10.9-7.4,16.7l-1.2,0.6l1.1-0.5c-8,26.9,0.1,56.1,20.7,75.1
		c8,10.4,19,18.2,31.5,22.3v10.1c-8.9,1.9-17.4,5.4-25.1,10.3l0,0c0,0-0.6,0.4-1.8,1.2l-0.3,0.2c-7.6,5.1-32.9,23.9-32.1,44.2
		c0,0.8,0,1.6,0,2.4c-1.4,5.9-2.1,11.9-2.1,17.9v147.2c0,16.3,5.4,32.1,15.5,44.8c-21.3,4.8-34.9,12-34.9,20.1c0.1,0.7,0.1,1.3,0,2
		c0,14.4,43,26.1,96.1,26.1c6.4,0,12.7-0.2,18.8-0.5l60,48.6L276,698.2c0,0-31.7,24.5-7.2,32.7s74.7,14.3,74.7,14.3
		s8.2-14.3-3.1-20.5s-26.6-3.1-26.6-3.1l2-12.3c0,0,166.7-143.2,131.9-192.3c-6.7-9.4-13.3-19.1-20-28.6L454,491l6,224.8l0.8-0.2
		c-1.5,4.4-12.1,37.7,11.4,32.1c25.2-6,70.9-27.3,70.9-27.3S542.4,703.8,529.6,704.5z M429.4,317.8l-49.1-14.3v-42l53.4,56.6
		C431,317.9,429.4,317.8,429.4,317.8z"/>
</g>
<circle cx="298.1" cy="99" r="72"/>
<path class="st2" d="M380.1,264l55,58.3c4.1,4.3,10.9,4.5,15.2,0.5c0.8-0.8,1.5-1.6,2-2.6L513.1,211l-17-6l-50,72
	c0,0-93.9-97.8-107-93S380.1,264,380.1,264z"/>
<line class="st7" x1="275.1" y1="466" x2="194.1" y2="676"/>
<line class="st7" x1="315.1" y1="466" x2="396.1" y2="676"/>
<ellipse class="st8" cx="295.1" cy="467.5" rx="94" ry="25.5"/>
<ellipse class="st9" cx="295.1" cy="465.5" rx="94" ry="25.5"/>
<line class="st7" x1="255.5" y1="512.2" x2="344.2" y2="539.5"/>
<line class="st7" x1="334.6" y1="512.2" x2="245.9" y2="539.5"/>
<path d="M229.8,76.1c0,0-37,20.2-32.6,53.9s-14.2,32.6-17.3,55c-3,22.4-15.2,57.2,9.3,48.9s29-10.5,38.6,11.6
	c9.6,22.1,20.5,50.4,61.6,14.5s60.8-70.2,75.8-67.4s40,7.6,21.5-17s-28.6-35.7-28.6-35.7L230.3,74.8L229.8,76.1z"/>
<path class="st2" d="M296.1,182h27.9c30.9,0,56,25.1,56,56v148l0,0h-160l0,0V258.1C220,216.1,254.1,182,296.1,182
	C296.1,182,296.1,182,296.1,182z"/>
<path class="st10" d="M220.1,386h160l0,0v87l0,0h-89c-39.2,0-71-31.8-71-71l0,0V386L220.1,386z"/>
<path class="st11" d="M222.2,242.1l97.8,93h108v-14l-93-27l-79.5-98.2C255.5,195.8,219.4,218.1,222.2,242.1z"/>
<path class="st2" d="M222.2,240.1l97.8,93h108v-14l-93-27l-79.5-98.2C255.5,193.8,219.4,216.1,222.2,240.1z"/>
<path class="st12" d="M428.1,319c0,0,52,4,38,14h-38V319z"/>
<path class="st12" d="M496.1,205c0,0,13-39,22-28s-5,34-5,34L496.1,205z"/>
<polygon class="st11" points="220.1,386 220.1,390.7 380.1,391 380.1,386 "/>
<path class="st10" d="M344.5,478.6l107.6,9.8l5.9,219.7l38.5-12.5c0,0,57.6-249,2.7-270s-114.3-48.6-149.8-26.1
	C313.9,422,344.5,478.6,344.5,478.6z"/>
<path class="st3" d="M351.1,411c0,0,59,30,67,64"/>
<path class="st10" d="M288.1,472l84,68l-94,151l39,11c0,0,163-140,129-188s-68-104-110-105S288.1,472,288.1,472z"/>
<polygon class="st11" points="420.1,251 441.1,287 446.1,277 "/>
<path class="st13" d="M278.1,691c0,0-31,24-7,32s73,14,73,14s8-14-3-20s-26-3-26-3l2-12L278.1,691z"/>
<path class="st13" d="M458.9,707.4c0,0-13.6,37.8,11,31.9s69.4-26.7,69.4-26.7s-0.6-16.1-13.1-15.4s-23.7,11.2-23.7,11.2l-5.4-13.4
	L458.9,707.4z"/>
<path class="st12" d="M300.1,147L300.1,147c11,0,20,9,20,20v20c0,11-9,20-20,20l0,0c-11,0-20-9-20-20v-20
	C280.1,156,289,147,300.1,147z"/>
<path class="st11" d="M300.1,149c-11,0-20,9-20,20v6.8c13,4.3,27,4.3,40,0V169C320.1,158,311.1,149,300.1,149z"/>
<circle class="st12" cx="300.1" cy="113" r="64"/>
<path class="st11" d="M236.1,110.1c0,0,16,4.1,25-14.1s16-28.1,53-17.4s44.4,12.1,46.2,1.9c1.2-6.9-11.9-23.8-20.4-33.8
	c-4.1-4.9-10.9-7.8-18-7.8h-41.8l-25,11.6l-19,16.5l-4,22.3L236.1,110.1z"/>
<path d="M236.1,108.1c0,0,16,4.1,25-14.1s16-28.1,53-17.4s44.4,12.1,46.2,1.9c1.2-6.9-11.9-23.8-20.4-33.8c-4.1-4.9-10.9-7.8-18-7.8
	h-41.8l-25,11.6l-19,16.5l-4,22.3L236.1,108.1z"/>
<ellipse class="st12" cx="242.6" cy="108" rx="6.5" ry="13"/>
<path d="M237.9,74.6c-1.5-8.4-2.9-17.2-0.2-25.2c2.7-7.8,8.9-13.8,16.7-16.3c5-1.6,10.5-1.5,15.5-3.2c7-2.3,12.6-7.7,18.7-11.9
	c5.4-3.7,11.4-6.5,17.7-8.3c5.7-1.6,12.3-2.3,17,1.4c3.9,3.1,5.2,8.4,8.4,12.2c3.7,4.4,9.5,6.3,14.6,9.1
	c12.8,7.2,21.3,20.2,22.6,34.9c0.2,2.1,0,4.7-1.8,5.9c-1.1,0.6-2.4,0.8-3.6,0.7c-25.6-0.4-51.2-0.7-76.7-3.1
	c-7.9-0.7-15.9-1.6-23.8-1.4c-12.3,0.5-24.3,3.9-35,9.9"/>
<g class="st0">
	
		<linearGradient id="SVGID_3_" gradientUnits="userSpaceOnUse" x1="146.9081" y1="112.7486" x2="321.8783" y2="112.7486" gradientTransform="matrix(1 0 0 -1 -146.88 674.11)">
		<stop  offset="0" style="stop-color:#808080;stop-opacity:0.25"/>
		<stop  offset="0.54" style="stop-color:#808080;stop-opacity:0.12"/>
		<stop  offset="1" style="stop-color:#808080;stop-opacity:0.1"/>
	</linearGradient>
	<path class="st14" d="M174,518.3c3.4-13.6-2-27.9-13.5-36c-3-2-6.3-3.5-9-5.8c-4.6-3.8-7.2-9.5-9-15.2c-4.5-13.6-6-28.8-13.9-41.1
		c-7.2-11.2-21.3-14.4-33.7-15.5c-4.5-0.4-9.3-0.6-13.5,1.3c-6.9,3.1-10.3,11.4-10.6,19c-0.3,7.7,1.7,15.1,2.2,22.7
		s-0.9,16-6.5,21.1s-13.6,5.8-21.1,6.8c-9.8,1.4-19.3,3.7-28.6,7.1c-7.8,2.8-16.4,7.9-16.8,16.2c-0.3,6.8,5.1,12.1,9.2,17.5
		c7.6,10,11.5,23.3,8.9,35.6c-2.6,12.6-11.5,23.4-13.1,36.1c-0.4,3.2-0.3,6.7,1.3,9.5c1.2,2,2.9,3.8,4.8,5.1
		c4.8,3.7,10.2,6.7,14.7,10.7c9.5,8.4,14.6,20.6,18.6,32.6c0.4,1.2,0.7,2.3,1.1,3.5h-9.3C17.2,649.6,1.8,665,1.8,684l0,0
		c0.1,19,15.4,34.4,34.4,34.4h93c19-0.1,34.4-15.4,34.4-34.4l0,0c0-19.1-15.5-34.5-34.5-34.5h-25.5c6-8.1,12.3-15.7,21.6-18.8
		s20.5-1.3,27.9-7.8c3.6-3.2,5.5-7.8,6.3-12.5c1.5-8.5,0.1-17.2-4.1-24.8c-2.9-5.2-7.2-10-8.1-15.9c-0.8-5.1,1-10.2,3.5-14.7
		C157.8,542.3,170.2,532.4,174,518.3z"/>
</g>
<path class="st15" d="M94.5,412.1c-4.3-0.4-8.9-0.6-12.8,1.2c-6.6,3-9.8,10.8-10.1,18.1s1.6,14.4,2.1,21.7s-0.8,15.2-6.2,20.1
	s-13,5.5-20.1,6.5c-9.3,1.3-18.4,3.6-27.2,6.8c-7.4,2.7-15.6,7.6-16,15.4c-0.3,6.4,4.9,11.6,8.8,16.7c7.3,9.6,10.9,22.2,8.4,33.9
	c-2.5,12-10.9,22.3-12.4,34.4c-0.4,3.1-0.3,6.4,1.2,9.1c1.2,1.9,2.8,3.6,4.6,4.9c4.6,3.5,9.7,6.4,14,10.2c9,8,13.9,19.6,17.7,31
	c3.7,11.3,6.6,22.8,8.7,34.4c7.8-5,17.8-4.9,26.1-9c17.6-8.7,23.6-33.7,42.2-40c8.8-3,19.6-1.2,26.5-7.4c3.4-3,5.2-7.5,6-11.9
	c1.5-8.1,0.1-16.4-3.9-23.5c-2.8-5-6.9-9.5-7.8-15.1c-0.8-4.8,1-9.7,3.3-14c6.7-12.2,18.5-21.6,22.2-35.1c3.2-13-1.9-26.6-12.8-34.3
	c-2.8-1.9-6-3.4-8.6-5.6c-4.4-3.7-6.8-9.1-8.6-14.5c-4.3-12.9-5.7-27.4-13.2-39.1C119.7,416.2,106.4,413.1,94.5,412.1z"/>
<path class="st16" d="M94.4,412.5c0,0,16.4,219.6-26.2,257.4"/>
<path class="st2" d="M38.6,645.3h88.5c18.1,0,32.8,14.7,32.8,32.8v0c0,18.1-14.7,32.8-32.8,32.8H38.6c-18.1,0-32.8-14.7-32.8-32.8v0
	C5.8,659.9,20.5,645.3,38.6,645.3z"/>
<path class="st16" d="M4.2,497.7c0,0,41.9-4.9,93.1,26.2"/>
<path class="st16" d="M96.5,550.2c0,0,23.3-38.5,73.3-45.9"/>
<path class="st16" d="M8.3,587.1c0,0,58.1-9.8,84.8,6.5"/>
<path class="st16" d="M89.8,616.2c0,0,30.4-13.8,64.6-2.6"/>
<linearGradient id="SVGID_4_" gradientUnits="userSpaceOnUse" x1="728.6" y1="262.92" x2="728.6" y2="265.92" gradientTransform="matrix(1 0 0 -1 -146.88 674.11)">
	<stop  offset="0" style="stop-color:#808080;stop-opacity:0.25"/>
	<stop  offset="0.54" style="stop-color:#808080;stop-opacity:0.12"/>
	<stop  offset="1" style="stop-color:#808080;stop-opacity:0.1"/>
</linearGradient>
<path class="st17" d="M581.7,411.2c0.8,0,1.5-0.7,1.5-1.5s-0.7-1.5-1.5-1.5s-1.5,0.7-1.5,1.5S580.9,411.2,581.7,411.2z"/>
<line class="st5" x1="801.8" y1="344" x2="905.8" y2="714.1"/>
<rect x="344.6" y="333.2" class="st18" width="561.6" height="21.9"/>
<path class="st19" d="M489.6,328h79c3.6,0,6.5,2.9,6.5,6.5l0,0c0,3.6-2.9,6.5-6.5,6.5h-79c-3.6,0-6.5-2.9-6.5-6.5l0,0
	C483.1,330.9,486,328,489.6,328z"/>
<g class="st0">
	
		<linearGradient id="SVGID_5_" gradientUnits="userSpaceOnUse" x1="653.39" y1="408.82" x2="653.39" y2="566.92" gradientTransform="matrix(1 0 0 -1 0 750)">
		<stop  offset="0" style="stop-color:#808080;stop-opacity:0.25"/>
		<stop  offset="0.54" style="stop-color:#808080;stop-opacity:0.12"/>
		<stop  offset="1" style="stop-color:#808080;stop-opacity:0.1"/>
	</linearGradient>
	<path class="st20" d="M567.3,183.1h172.2c15.6,0,28.2,12.6,28.2,28.2V313c0,15.6-12.6,28.2-28.2,28.2H567.3
		c-15.6,0-28.2-12.6-28.2-28.2V211.3C539.1,195.7,551.7,183.1,567.3,183.1z"/>
</g>
<path class="st21" d="M570,186h162.9c14.8,0,26.8,12,26.8,26.8v101.5c0,14.8-12,26.8-26.8,26.8H570c-14.8,0-26.8-12-26.8-26.8V212.8
	C543.1,198,555.1,186,570,186z"/>
<path class="st19" d="M573,186h162.9c14.8,0,26.8,12,26.8,26.8v101.5c0,14.8-12,26.8-26.8,26.8H573c-14.8,0-26.8-12-26.8-26.8V212.8
	C546.1,198,558.1,186,573,186z"/>
<circle class="st18" cx="664.6" cy="262.5" r="7"/>
</svg>
